<?xml version="1.0" encoding="UTF-8"?>
<!DOCTYPE svg PUBLIC "-//W3C//DTD SVG 1.1//EN" "http://www.w3.org/Graphics/SVG/1.1/DTD/svg11.dtd">
<!-- Creator: CorelDRAW 2019 (64-Bit) -->
<svg xmlns="http://www.w3.org/2000/svg" xml:space="preserve" width="5.31496in" height="5.31496in" version="1.1" style="shape-rendering:geometricPrecision; text-rendering:geometricPrecision; image-rendering:optimizeQuality; fill-rule:evenodd; clip-rule:evenodd"
viewBox="0 0 5314.96 5314.96"
 xmlns:xlink="http://www.w3.org/1999/xlink">
 <defs>
  <style type="text/css">
   <![CDATA[
    .fil1 {fill:#FEFEFE}
    .fil0 {fill:#028DAA}
    .fil2 {fill:#F8B624}
   ]]>
  </style>
 </defs>
 <g id="Layer_x0020_1">
  <metadata id="CorelCorpID_0Corel-Layer"/>
  <g id="_1190178080">
   <circle class="fil0" cx="2657.48" cy="2657.48" r="2657.48"/>
   <g>
    <path class="fil1" d="M2128.94 1659.4l0 787.27c0,0 25.87,224.23 266.12,235.32l0 -806.97c0,0 -36.33,-230.39 -266.12,-215.61zm-1024.29 1127.92l1.97 -266.12c2.77,-37.77 33.95,-62.11 69,-59.14l386.36 0c164.39,39.3 186.33,278.73 0,321.31l-457.33 3.94zm2247.11 -1126.69l0 889.93c0,0 21.5,444.28 507.12,513.72l620.77 0 0 -1029.27c0,0 -235.63,-6.73 -269.28,250.64l0 502.34 -333.52 0c0,0 -226.69,-14.79 -256.26,-275.98l0 -610.26c0,0 -18.9,-256.26 -268.83,-241.12zm-1223.07 1401.43l1125.57 0c0,0 9.86,-230.64 -226.69,-268.09l-656.43 0c0,0 -222.75,7.88 -242.46,268.09zm-1025.04 -1024.61l0 150.31 481.72 0c0,0 113.35,-17.25 107.19,-158.93 0,0 -17.87,-91.17 -117.66,-105.34l-493.43 0c0,0 -236.54,-24.01 -245.17,-265.49l791.19 0c0,0 300.62,58.09 327.72,346.39 0,0 44.35,147.84 -103.49,330.18 0,0 174.94,172.48 88.7,421.35 -86.24,248.87 -287.06,291.98 -354.82,304.31 -67.76,12.32 -750.3,0 -750.3,0l0 -773.72c0,0 20.94,-256.25 268.34,-249.05z"/>
    <path class="fil2" d="M4209.49 1655.36l267.76 0 0 262.83c0,0 -243.12,18.07 -267.76,-262.83zm-92.58 1691.48l203.17 0c0,0 77.25,2.32 59.55,98.91 -10.26,55.98 -21,126.69 -90.81,137.52l-217.97 3.32 46.06 -239.75zm-71.63 -79.02l323.85 0c0,0 123.13,3.79 94.91,161.62 -16.35,91.48 -33.48,207.03 -144.75,224.74l-347.44 5.43 73.42 -391.79zm-516 157.7l413.22 0 -10.84 67.76 -329.93 0c0,0 -26.86,84.02 32.28,84.02 59.14,0 281.89,0 281.89,0l-7.88 77.87 -319.83 0c0,0 -96.6,-1.48 -79.84,-123.7l20.95 -105.95zm-482.18 -2.46l413.22 0 -10.84 67.76 -329.93 0c0,0 -26.86,84.02 32.28,84.02 59.14,0 281.89,0 281.89,0l-7.88 77.87 -319.83 0c0,0 -96.6,-1.48 -79.84,-123.69l20.95 -105.96zm928.17 -159.67l-14.78 75.89 -408.05 0c0,0 42.38,-79.83 125.17,-78.85 82.79,0.98 297.66,2.96 297.66,2.96zm-481.44 2.95l-14.78 75.89 -408.05 0c0,0 42.38,-79.83 125.17,-78.85 82.79,0.99 297.66,2.96 297.66,2.96zm-901.27 -3.68l346.51 0c0,0 74.04,5.8 65.91,100.41 -8.13,94.62 -34.5,124.44 -34.5,124.44 0,0 -33.26,41.76 -74.53,45.59 -41.27,3.82 -273.51,0 -273.51,0l-24.65 124.43 -85.87 0.12 67.52 -374.04c0,0 -0.74,-17.5 13.11,-20.95zm64.23 80.13l-22.67 123.7 224.72 0c52.14,5.04 85.03,-124.46 20.2,-123.2l-222.26 -0.5zm-574.1 -15.71l-193.43 0c0,0 -45.17,-25.05 0,-65.3l614.38 0 -14.78 80.89 -312.11 0c0,0 -45.07,73.51 0,76.79 45.07,3.28 245.01,0 245.01,0 90.44,7.28 54.76,219.7 -39.44,235.53l-363.34 0 15.14 -76.96 332.92 -1.54c24.31,-37.13 31.84,-84.76 -6.16,-84.21 -57.95,0 -245.45,17.89 -281.67,-22.39 -25.83,-28.73 -6.06,-109.07 3.48,-142.81zm-279.93 261.52l137.17 0c29.44,11.51 30.79,50.44 0,61.6l-136.35 0c-34.4,-7.24 -33.91,-49.36 -0.82,-61.6zm-180.5 -0.82l80.08 0c28.35,8.89 31.88,51.2 0,60.78l-78.03 0c-28.14,-7.2 -30.11,-48.57 -2.06,-60.78zm-104.36 -94.66l80.08 0c27.73,14.8 26.62,45.24 0,60.78l-78.03 0c-29.97,-10.67 -31.9,-47.36 -2.05,-60.78zm175.77 -0.41c96.48,0.14 192.96,0.29 289.44,0.43 24.14,0.28 31.58,49.68 0,59.14l-288.62 -0.43c-27.12,-9.01 -26.95,-48.7 -0.82,-59.14zm-84.59 -116.63l381.93 0c36.15,6.57 37.78,54.76 0,63.24l-382.75 0c-34.76,-10.95 -31.63,-54.21 0.82,-63.24z"/>
   </g>
  </g>
 </g>
</svg>
